<?xml version="1.0" standalone="no"?>
<!DOCTYPE svg PUBLIC "-//W3C//DTD SVG 20010904//EN"
 "http://www.w3.org/TR/2001/REC-SVG-20010904/DTD/svg10.dtd">
<svg version="1.0" xmlns="http://www.w3.org/2000/svg"
 width="300.000000pt" height="300.000000pt" viewBox="0 0 300.000000 300.000000"
 preserveAspectRatio="xMidYMid meet">

<g transform="translate(0.000000,300.000000) scale(0.100000,-0.100000)"
fill="#000000" stroke="none">
<path d="M1420 2158 c0 -8 9 -23 20 -33 17 -15 24 -16 45 -7 19 9 30 9 44 0
15 -9 24 -8 45 5 14 10 26 25 26 34 0 15 -1 15 -18 0 -22 -20 -43 -22 -60 -5
-9 9 -15 9 -24 0 -17 -17 -38 -15 -60 5 -15 14 -18 14 -18 1z"/>
<path d="M1485 2090 c-17 -18 -18 -38 -12 -246 l5 -226 -35 33 c-19 19 -49 59
-66 89 -30 52 -32 60 -32 160 0 81 4 112 18 137 13 25 14 31 3 27 -28 -11 -70
-125 -74 -202 -4 -66 -1 -79 27 -137 21 -42 50 -80 82 -107 46 -40 48 -43 27
-50 -13 -3 -39 -7 -58 -8 l-35 -2 35 -10 c19 -5 50 -7 69 -4 25 4 41 0 54 -12
18 -16 19 -16 28 1 8 14 18 16 45 11 19 -3 51 -3 71 2 l38 7 -48 8 c-27 4 -51
10 -54 13 -3 3 10 18 28 33 54 45 77 72 101 122 45 90 23 247 -43 322 -17 19
-27 27 -21 19 49 -76 54 -228 10 -315 -24 -46 -88 -125 -103 -125 -3 0 -2 99
1 220 7 204 6 221 -11 240 -23 25 -27 25 -50 0z"/>
<path d="M1305 2073 c-136 -71 -175 -247 -84 -379 16 -24 38 -48 48 -53 15 -8
14 -2 -7 40 -51 103 -37 251 31 341 35 46 50 68 45 68 -2 -1 -16 -8 -33 -17z"/>
<path d="M1700 2053 c94 -106 113 -255 50 -386 l-20 -42 40 40 c113 113 97
305 -34 393 -63 42 -76 41 -36 -5z"/>
<path d="M1875 1461 c3 -6 -8 -20 -24 -31 -18 -14 -27 -28 -24 -40 4 -16 7
-15 27 5 13 13 26 30 29 39 4 9 11 16 17 16 5 0 10 5 10 10 0 6 -9 10 -21 10
-11 0 -18 -4 -14 -9z"/>
<path d="M1422 1417 c-15 -26 -17 -38 -9 -46 15 -15 -5 -34 -29 -29 -20 4 -20
7 -10 48 l7 25 -15 -25 c-18 -29 -20 -66 -5 -75 21 -13 57 5 69 36 11 25 11
32 1 39 -10 5 -7 12 10 24 17 11 20 19 12 27 -7 7 -16 0 -31 -24z"/>
<path d="M1501 1413 c-1 -49 8 -53 51 -21 l31 21 -5 -31 c-2 -17 -1 -29 3 -26
9 5 24 73 17 79 -2 3 -20 -6 -38 -20 -36 -27 -46 -24 -53 15 -3 16 -5 10 -6
-17z"/>
<path d="M1225 1414 c-13 -59 -13 -64 -4 -59 10 7 24 74 16 82 -3 3 -9 -8 -12
-23z"/>
<path d="M1326 1428 c-11 -34 -15 -78 -7 -74 5 3 11 24 13 46 4 40 1 51 -6 28z"/>
<path d="M1476 1424 c-11 -28 -7 -86 6 -82 6 2 14 10 16 18 3 7 0 10 -6 6 -7
-4 -8 8 -5 34 6 41 0 53 -11 24z"/>
<path d="M1681 1414 c-16 -20 -18 -30 -10 -40 15 -18 2 -34 -28 -34 -22 0 -24
3 -19 28 5 20 4 23 -4 12 -13 -20 -13 -57 1 -65 21 -14 57 5 70 37 10 24 10
33 1 36 -18 6 -14 20 8 27 11 3 20 11 20 16 0 17 -18 9 -39 -17z"/>
<path d="M1196 1409 c-2 -8 -7 -26 -10 -41 -11 -48 -72 -49 -63 -1 5 28 -8 18
-17 -13 -6 -21 14 -54 34 -54 21 0 52 39 60 75 8 37 5 64 -4 34z"/>
<path d="M1271 1385 c-18 -20 -31 -38 -28 -42 7 -6 67 57 67 69 0 13 -4 10
-39 -27z"/>
<path d="M1743 1374 c-15 -23 -17 -31 -6 -27 13 5 38 52 31 58 -2 2 -13 -12
-25 -31z"/>
<path d="M1783 1395 c-3 -9 -3 -19 1 -22 3 -3 1 -12 -6 -20 -8 -10 -8 -12 4
-8 17 7 40 50 31 59 -11 11 -23 6 -30 -9z"/>
<path d="M1147 1386 c-3 -8 -2 -18 3 -21 13 -8 24 15 12 27 -6 6 -11 4 -15 -6z"/>
<path d="M1885 1339 c-4 -6 -5 -13 -2 -16 7 -7 27 6 27 18 0 12 -17 12 -25 -2z"/>
<path d="M1259 1303 c-9 -10 -6 -13 15 -13 15 0 26 6 26 13 0 8 -7 14 -15 14
-8 0 -20 -6 -26 -14z"/>
<path d="M910 1229 c-14 -10 -30 -17 -36 -15 -30 11 -94 -140 -70 -164 8 -8 7
-13 -4 -20 -36 -23 -61 1 -40 39 6 12 8 21 5 21 -14 0 -33 -65 -24 -82 21 -39
79 -4 79 47 0 12 15 29 36 43 37 24 41 42 6 23 -31 -17 -44 -13 -40 12 2 16
11 23 31 25 15 2 27 9 27 17 0 7 14 25 32 39 18 14 30 27 28 30 -3 2 -16 -4
-30 -15z"/>
<path d="M1781 1191 c-16 -29 -13 -41 8 -41 23 0 36 16 21 25 -6 4 -8 10 -5
15 3 5 1 11 -4 15 -6 3 -15 -3 -20 -14z"/>
<path d="M1285 1191 c-6 -5 -21 -11 -34 -13 -14 -1 -26 -8 -28 -14 -6 -19 57
-3 68 17 11 21 8 24 -6 10z"/>
<path d="M1042 1165 c-11 -23 -10 -25 13 -25 26 0 29 7 19 34 -9 23 -19 20
-32 -9z"/>
<path d="M1115 1137 c-4 -10 -5 -21 -1 -24 10 -10 18 4 13 24 -4 17 -4 17 -12
0z"/>
<path d="M902 1129 c2 -6 8 -10 13 -10 5 0 11 4 13 10 2 6 -4 11 -13 11 -9 0
-15 -5 -13 -11z"/>
<path d="M2205 1131 c-6 -11 9 -23 19 -14 9 9 7 23 -3 23 -6 0 -12 -4 -16 -9z"/>
<path d="M1242 1119 c-1 -9 -5 -32 -8 -50 -4 -28 -3 -31 6 -16 6 9 9 32 7 50
-2 17 -5 25 -5 16z"/>
<path d="M1431 1105 c-2 -26 -4 -27 -11 -10 -7 18 -8 17 -14 -10 -11 -47 -21
-60 -51 -63 -26 -3 -28 -2 -22 30 l6 33 -14 -30 c-15 -35 -4 -65 25 -65 24 0
48 24 57 58 6 25 6 25 14 4 7 -18 15 -22 50 -20 33 1 43 6 52 25 8 19 7 27 -8
41 -17 16 -17 16 -12 -15 4 -18 2 -35 -3 -38 -6 -3 -10 -1 -10 6 0 10 -3 10
-12 1 -15 -15 -32 -16 -23 -2 3 6 2 10 -4 10 -5 0 -12 17 -14 38 -3 33 -4 34
-6 7z"/>
<path d="M1630 1114 c0 -10 7 -14 23 -12 12 2 22 7 22 12 0 5 -10 11 -22 12
-16 3 -23 -1 -23 -12z"/>
<path d="M1816 1115 c-3 -9 -6 -31 -5 -48 1 -28 2 -26 10 12 9 46 6 65 -5 36z"/>
<path d="M2006 1122 c-3 -3 -6 -9 -6 -14 0 -12 40 -6 43 6 2 10 -29 17 -37 8z"/>
<path d="M1057 1109 c-9 -6 -17 -21 -17 -34 0 -47 -57 -74 -80 -37 -9 15 -10
14 -8 -7 7 -60 79 -43 93 21 4 18 15 38 24 45 21 15 11 25 -12 12z"/>
<path d="M1183 1107 c-4 -8 -16 -17 -27 -20 -12 -5 -16 -13 -12 -24 4 -9 1
-20 -6 -25 -11 -6 -11 -8 0 -8 7 0 21 13 30 30 9 16 23 30 30 30 6 0 12 7 12
15 0 19 -16 20 -27 2z"/>
<path d="M2160 1083 c-3 -23 -2 -39 3 -34 5 5 7 24 5 42 -3 33 -4 33 -8 -8z"/>
<path d="M1750 1083 c-36 -19 -58 -23 -108 -20 -52 2 -62 0 -60 -13 6 -28 96
-25 156 5 46 23 70 43 61 48 -2 2 -24 -8 -49 -20z"/>
<path d="M901 1065 c-19 -21 -27 -35 -19 -35 14 0 63 58 56 66 -2 2 -19 -12
-37 -31z"/>
<path d="M1121 1083 c-1 -7 -10 -22 -21 -33 -15 -15 -16 -20 -5 -20 17 0 38
36 31 53 -3 9 -5 9 -5 0z"/>
<path d="M1285 1080 c-3 -5 -3 -15 1 -21 3 -6 0 -15 -7 -20 -11 -7 -11 -9 2
-9 17 0 29 19 29 46 0 16 -16 19 -25 4z"/>
<path d="M1556 1068 c-8 -32 -7 -50 2 -44 8 5 15 66 7 66 -1 0 -5 -10 -9 -22z"/>
<path d="M1936 1081 c-10 -16 -59 -23 -67 -9 -6 9 -9 10 -9 1 0 -7 -10 -21
-22 -33 -12 -11 -17 -20 -10 -20 6 0 13 4 17 10 3 5 12 7 20 3 9 -3 22 0 29 6
10 8 15 9 18 1 2 -6 11 3 21 20 10 16 16 30 13 30 -3 0 -7 -4 -10 -9z"/>
<path d="M2122 1059 c-19 -24 -21 -29 -8 -29 9 0 21 12 27 26 13 36 8 37 -19
3z"/>
<path d="M2201 1059 c-20 -27 -21 -30 -5 -27 10 1 21 15 25 31 4 15 6 27 5 27
-1 0 -13 -14 -25 -31z"/>
<path d="M2242 1073 c1 -10 -1 -24 -5 -30 -5 -7 -4 -13 2 -13 11 0 31 32 31
49 0 6 -7 11 -16 11 -9 0 -14 -7 -12 -17z"/>
<path d="M960 1069 c0 -5 5 -7 10 -4 6 3 10 8 10 11 0 2 -4 4 -10 4 -5 0 -10
-5 -10 -11z"/>
<path d="M1357 1074 c-8 -8 1 -24 14 -24 5 0 9 7 9 15 0 15 -12 20 -23 9z"/>
<path d="M2077 1068 c-10 -5 -41 -8 -68 -6 -41 2 -49 0 -49 -14 0 -26 89 -25
121 1 27 22 24 35 -4 19z"/>
<path d="M906 1001 c-7 -10 5 -51 14 -51 4 0 10 8 12 18 3 9 7 21 9 26 5 11
-29 17 -35 7z"/>
<path d="M1927 993 c-12 -11 -8 -23 8 -23 8 0 15 7 15 15 0 16 -12 20 -23 8z"/>
</g>
</svg>
